<?xml version="1.0" encoding="UTF-8"?>
<svg xmlns="http://www.w3.org/2000/svg" id="Layer_1" data-name="Layer 1" viewBox="0 0 24 24">
  <path fill="url(#paint0_linear)"
    d="M12,1C6.878,1,1,2.25,1,12s5.878,11,11,11,11-1.25,11-11S17.122,1,12,1Zm0,20c-5.402,0-9-1.53-9-9S6.598,3,12,3s9,1.53,9,9-3.598,9-9,9Z" />
  <path fill="url(#paint0_linear)"
    d="M16.6,6.634c-.242-.039-5.943-.864-10.909,4.103-.61,.61-.49,1.21-.411,1.439,.328,.944,1.471,1.079,3.053,1.266,.615,.073,1.623,.192,1.95,.348,.158,.328,.282,1.342,.357,1.961,.191,1.571,.33,2.707,1.268,3.031,.086,.029,.225,.064,.396,.064,.282,0,.653-.096,1.027-.469,4.966-4.967,4.139-10.669,4.102-10.909-.067-.43-.404-.767-.833-.834Zm-3.898,9.474c-.028-.209-.054-.419-.076-.6-.192-1.576-.35-2.574-.925-3.146-.571-.568-1.565-.722-3.134-.906-.188-.022-.406-.049-.624-.077,3.019-2.547,6.131-2.823,7.562-2.821,.014,1.419-.285,4.548-2.804,7.55Z" />
  <defs>
    <linearGradient id="paint0_linear" x1="0" y1="0" x2="24" y2="24" gradientUnits="userSpaceOnUse">
      <stop stop-color="#00AFAF" />
      <stop offset="1" stop-color="#3b83f6" />
    </linearGradient>
  </defs>
</svg>